<?xml version="1.0" encoding="UTF-8" standalone="no"?>
<!-- Generator: Gravit.io -->
<svg xmlns="http://www.w3.org/2000/svg" xmlns:xlink="http://www.w3.org/1999/xlink" style="isolation:isolate" viewBox="0 0 347 100" width="347pt" height="100pt"><defs><clipPath id="_clipPath_6utndIiJjlumQqbPRorkxJqIFCjvRs74"><rect width="347" height="100"/></clipPath></defs><g clip-path="url(#_clipPath_6utndIiJjlumQqbPRorkxJqIFCjvRs74)"><path d=" M 22.055 60.637 L 0 60.637 L 0 75.824 C 0 81.501 4.609 86.111 10.287 86.111 L 11.027 86.111 C 17.113 86.111 22.055 81.17 22.055 75.083 L 22.055 60.637 Z " fill-rule="evenodd" fill="rgb(0,160,143)"/><path d=" M 0 39.624 L 22.055 39.624 L 22.055 24.436 C 22.055 18.76 17.446 14.15 11.768 14.15 L 11.027 14.15 C 4.941 14.15 0 19.091 0 25.177 L 0 39.624 Z " fill-rule="evenodd" fill="rgb(0,160,143)"/><path d=" M 37.129 27.593 L 52.724 43.188 L 63.463 32.449 C 67.477 28.435 67.478 21.916 63.463 17.901 L 62.939 17.377 C 58.636 13.074 51.648 13.074 47.344 17.377 L 37.129 27.593 Z " fill-rule="evenodd" fill="rgb(0,121,109)"/><path d=" M 53.031 56.245 L 37.436 71.84 L 48.175 82.579 C 52.189 86.593 58.708 86.594 62.722 82.579 L 63.246 82.056 C 67.55 77.752 67.55 70.764 63.246 66.46 L 53.031 56.245 Z " fill-rule="evenodd" fill="rgb(0,94,84)"/><path d=" M 95.549 39.103 L 95.549 61.158 L 110.736 61.158 C 116.413 61.158 121.023 56.548 121.023 50.871 L 121.023 50.13 C 121.023 44.044 116.082 39.103 109.996 39.103 L 95.549 39.103 Z " fill-rule="evenodd" fill="rgb(0,94,84)"/><path d=" M 96.023 61.158 L 96.023 39.103 L 80.836 39.103 C 75.159 39.103 70.549 43.712 70.549 49.39 L 70.549 50.13 C 70.549 56.216 75.49 61.158 81.577 61.158 L 96.023 61.158 Z " fill-rule="evenodd" fill="rgb(0,94,84)"/><rect x="26.929" y="45.739" width="22.055" height="22.055" transform="matrix(-0.707,0.707,-0.707,-0.707,104.936,70.066)" fill="rgb(0,94,84)"/><rect x="211.945" y="38.582" width="22.055" height="22.055" transform="matrix(1,0,0,1,0,0)" fill="rgb(0,121,109)"/><rect x="23.174" y="30.211" width="22.055" height="31.807" transform="matrix(0.707,0.707,-0.707,0.707,42.626,-10.677)" fill="rgb(0,121,109)"/><rect x="0" y="39.103" width="22.055" height="22.055" transform="matrix(1,0,0,1,0,0)" fill="rgb(0,160,143)"/><path d=" M 95.971 86.111 L 95.971 64.056 L 80.784 64.056 C 75.107 64.056 70.497 68.665 70.497 74.343 L 70.497 75.083 C 70.497 81.17 75.439 86.111 81.525 86.111 L 95.971 86.111 Z " fill-rule="evenodd" fill="rgb(0,121,109)"/><path d=" M 92.552 60.376 L 70.497 60.376 L 70.497 75.564 C 70.497 81.24 75.106 85.85 80.784 85.85 L 81.525 85.85 C 87.611 85.85 92.552 80.909 92.552 74.823 L 92.552 60.376 Z " fill-rule="evenodd" fill="rgb(0,160,143)"/><path d=" M 96.497 35.944 L 96.497 13.889 L 81.31 13.889 C 75.633 13.889 71.023 18.498 71.023 24.176 L 71.023 24.917 C 71.023 31.003 75.965 35.944 82.051 35.944 L 96.497 35.944 Z " fill-rule="evenodd" fill="rgb(0,121,109)"/><path d=" M 96.023 13.889 L 96.023 35.944 L 111.211 35.944 C 116.887 35.944 121.497 31.335 121.497 25.657 L 121.497 24.917 C 121.497 18.83 116.556 13.889 110.47 13.889 L 96.023 13.889 Z " fill-rule="evenodd" fill="rgb(0,121,109)"/><path d=" M 70.497 39.363 L 92.552 39.363 L 92.552 24.176 C 92.552 18.499 87.943 13.889 82.265 13.889 L 81.525 13.889 C 75.439 13.889 70.497 18.83 70.497 24.917 L 70.497 39.363 Z " fill-rule="evenodd" fill="rgb(0,160,143)"/><rect x="70.497" y="38.842" width="22.055" height="22.055" transform="matrix(1,0,0,1,0,0)" fill="rgb(0,160,143)"/><path d=" M 95.549 64.056 L 95.549 86.111 L 110.736 86.111 C 116.413 86.111 121.023 81.502 121.023 75.824 L 121.023 75.083 C 121.023 68.997 116.082 64.056 109.996 64.056 L 95.549 64.056 Z " fill-rule="evenodd" fill="rgb(0,121,109)"/><path d=" M 208.474 85.85 L 208.474 63.796 L 193.287 63.796 C 187.61 63.796 183 68.405 183 74.082 L 183 74.823 C 183 80.909 187.941 85.85 194.027 85.85 L 208.474 85.85 Z " fill-rule="evenodd" fill="rgb(0,121,109)"/><path d=" M 205.055 60.116 L 183 60.116 L 183 75.303 C 183 80.98 187.609 85.59 193.287 85.59 L 194.027 85.59 C 200.113 85.59 205.055 80.649 205.055 74.563 L 205.055 60.116 Z " fill-rule="evenodd" fill="rgb(0,160,143)"/><path d=" M 209 35.684 L 209 13.629 L 193.813 13.629 C 188.136 13.629 183.526 18.238 183.526 23.916 L 183.526 24.656 C 183.526 30.742 188.467 35.684 194.553 35.684 L 209 35.684 Z " fill-rule="evenodd" fill="rgb(0,121,109)"/><path d=" M 208.526 13.629 L 208.526 35.684 L 223.713 35.684 C 229.39 35.684 234 31.074 234 25.397 L 234 24.656 C 234 18.57 229.059 13.629 222.973 13.629 L 208.526 13.629 Z " fill-rule="evenodd" fill="rgb(0,121,109)"/><path d=" M 183 39.103 L 205.055 39.103 L 205.055 23.916 C 205.055 18.239 200.446 13.629 194.768 13.629 L 194.027 13.629 C 187.941 13.629 183 18.57 183 24.656 L 183 39.103 Z " fill-rule="evenodd" fill="rgb(0,160,143)"/><rect x="183" y="38.582" width="22.055" height="22.055" transform="matrix(1,0,0,1,0,0)" fill="rgb(0,160,143)"/><path d=" M 151.526 61.158 L 151.526 39.103 L 136.339 39.103 C 130.662 39.103 126.052 43.712 126.052 49.39 L 126.052 50.13 C 126.052 56.216 130.993 61.158 137.079 61.158 L 151.526 61.158 Z " fill-rule="evenodd" fill="rgb(0,94,84)"/><path d=" M 151.474 86.111 L 151.474 64.056 L 136.287 64.056 C 130.61 64.056 126 68.665 126 74.343 L 126 75.083 C 126 81.17 130.941 86.111 137.027 86.111 L 151.474 86.111 Z " fill-rule="evenodd" fill="rgb(0,121,109)"/><path d=" M 148.055 60.376 L 126 60.376 L 126 75.564 C 126 81.24 130.609 85.85 136.287 85.85 L 137.027 85.85 C 143.113 85.85 148.055 80.909 148.055 74.823 L 148.055 60.376 Z " fill-rule="evenodd" fill="rgb(0,160,143)"/><path d=" M 152 35.944 L 152 13.889 L 136.813 13.889 C 131.136 13.889 126.526 18.498 126.526 24.176 L 126.526 24.917 C 126.526 31.003 131.467 35.944 137.553 35.944 L 152 35.944 Z " fill-rule="evenodd" fill="rgb(0,121,109)"/><path d=" M 151.526 13.889 L 151.526 35.944 L 166.713 35.944 C 172.39 35.944 177 31.335 177 25.657 L 177 24.917 C 177 18.83 172.059 13.889 165.973 13.889 L 151.526 13.889 Z " fill-rule="evenodd" fill="rgb(0,121,109)"/><path d=" M 177 35.684 L 154.945 35.684 L 154.945 50.871 C 154.945 56.548 159.554 61.158 165.232 61.158 L 165.973 61.158 C 172.059 61.158 177 56.216 177 50.13 L 177 35.684 Z " fill-rule="evenodd" fill="rgb(0,121,109)"/><path d=" M 154.945 39.363 L 177 39.363 L 177 24.176 C 177 18.499 172.391 13.889 166.713 13.889 L 165.973 13.889 C 159.887 13.889 154.945 18.83 154.945 24.917 L 154.945 39.363 Z " fill-rule="evenodd" fill="rgb(0,121,109)"/><path d=" M 126 39.363 L 148.055 39.363 L 148.055 24.176 C 148.055 18.499 143.446 13.889 137.768 13.889 L 137.027 13.889 C 130.941 13.889 126 18.83 126 24.917 L 126 39.363 Z " fill-rule="evenodd" fill="rgb(0,160,143)"/><rect x="126" y="38.842" width="22.055" height="22.055" transform="matrix(1,0,0,1,0,0)" fill="rgb(0,160,143)"/><path d=" M 151.052 64.056 L 151.052 86.111 L 166.239 86.111 C 171.916 86.111 176.526 81.502 176.526 75.824 L 176.526 75.083 C 176.526 68.997 171.585 64.056 165.499 64.056 L 151.052 64.056 Z " fill-rule="evenodd" fill="rgb(0,121,109)"/><path d=" M 151.052 39.103 L 151.052 61.158 L 166.239 61.158 C 171.916 61.158 176.526 56.548 176.526 50.871 L 176.526 50.13 C 176.526 44.044 171.585 39.103 165.499 39.103 L 151.052 39.103 Z " fill-rule="evenodd" fill="rgb(0,94,84)"/><path d=" M 177 60.637 L 154.945 60.637 L 154.945 75.824 C 154.945 81.501 159.554 86.111 165.232 86.111 L 165.973 86.111 C 172.059 86.111 177 81.17 177 75.083 L 177 60.637 Z " fill-rule="evenodd" fill="rgb(0,94,84)"/><path d=" M 234 60.376 L 211.945 60.376 L 211.945 75.564 C 211.945 81.24 216.554 85.85 222.232 85.85 L 222.973 85.85 C 229.059 85.85 234 80.909 234 74.823 L 234 60.376 Z " fill-rule="evenodd" fill="rgb(0,121,109)"/><path d=" M 211.945 39.103 L 234 39.103 L 234 23.916 C 234 18.239 229.391 13.629 223.713 13.629 L 222.973 13.629 C 216.887 13.629 211.945 18.57 211.945 24.656 L 211.945 39.103 Z " fill-rule="evenodd" fill="rgb(0,121,109)"/><path d=" M 154.945 64.577 L 177 64.577 L 177 49.39 C 177 43.713 172.391 39.103 166.713 39.103 L 165.973 39.103 C 159.887 39.103 154.945 44.044 154.945 50.13 L 154.945 64.577 Z " fill-rule="evenodd" fill="rgb(0,94,84)"/><path d=" M 208.052 63.796 L 208.052 85.85 L 223.239 85.85 C 228.916 85.85 233.526 81.241 233.526 75.564 L 233.526 74.823 C 233.526 68.737 228.585 63.796 222.499 63.796 L 208.052 63.796 Z " fill-rule="evenodd" fill="rgb(0,121,109)"/><rect x="324.945" y="38.061" width="22.055" height="22.055" transform="matrix(1,0,0,1,0,0)" fill="rgb(0,121,109)"/><path d=" M 321.474 85.33 L 321.474 63.275 L 306.287 63.275 C 300.61 63.275 296 67.884 296 73.562 L 296 74.302 C 296 80.388 300.941 85.33 307.027 85.33 L 321.474 85.33 Z " fill-rule="evenodd" fill="rgb(0,121,109)"/><path d=" M 318.055 59.595 L 296 59.595 L 296 74.782 C 296 80.459 300.609 85.069 306.287 85.069 L 307.027 85.069 C 313.113 85.069 318.055 80.128 318.055 74.042 L 318.055 59.595 Z " fill-rule="evenodd" fill="rgb(0,160,143)"/><path d=" M 322 35.163 L 322 13.108 L 306.813 13.108 C 301.136 13.108 296.526 17.717 296.526 23.395 L 296.526 24.135 C 296.526 30.221 301.467 35.163 307.553 35.163 L 322 35.163 Z " fill-rule="evenodd" fill="rgb(0,121,109)"/><path d=" M 321.526 13.108 L 321.526 35.163 L 336.713 35.163 C 342.39 35.163 347 30.553 347 24.876 L 347 24.135 C 347 18.049 342.059 13.108 335.973 13.108 L 321.526 13.108 Z " fill-rule="evenodd" fill="rgb(0,121,109)"/><path d=" M 296 38.582 L 318.055 38.582 L 318.055 23.395 C 318.055 17.718 313.446 13.108 307.768 13.108 L 307.027 13.108 C 300.941 13.108 296 18.049 296 24.135 L 296 38.582 Z " fill-rule="evenodd" fill="rgb(0,160,143)"/><rect x="296" y="38.061" width="22.055" height="22.055" transform="matrix(1,0,0,1,0,0)" fill="rgb(0,160,143)"/><path d=" M 347 59.855 L 324.945 59.855 L 324.945 75.043 C 324.945 80.72 329.554 85.33 335.232 85.33 L 335.973 85.33 C 342.059 85.33 347 80.388 347 74.302 L 347 59.855 Z " fill-rule="evenodd" fill="rgb(0,121,109)"/><path d=" M 324.945 38.582 L 347 38.582 L 347 23.395 C 347 17.718 342.391 13.108 336.713 13.108 L 335.973 13.108 C 329.887 13.108 324.945 18.049 324.945 24.135 L 324.945 38.582 Z " fill-rule="evenodd" fill="rgb(0,121,109)"/><path d=" M 321.052 63.275 L 321.052 85.33 L 336.239 85.33 C 341.916 85.33 346.526 80.72 346.526 75.043 L 346.526 74.302 C 346.526 68.216 341.585 63.275 335.499 63.275 L 321.052 63.275 Z " fill-rule="evenodd" fill="rgb(0,121,109)"/><rect x="268.945" y="38.322" width="22.055" height="22.055" transform="matrix(1,0,0,1,0,0)" fill="rgb(0,94,84)"/><path d=" M 265.474 85.59 L 265.474 63.535 L 250.287 63.535 C 244.61 63.535 240 68.144 240 73.822 L 240 74.563 C 240 80.649 244.941 85.59 251.027 85.59 L 265.474 85.59 Z " fill-rule="evenodd" fill="rgb(0,121,109)"/><path d=" M 262.055 59.855 L 240 59.855 L 240 75.043 C 240 80.72 244.609 85.33 250.287 85.33 L 251.027 85.33 C 257.113 85.33 262.055 80.388 262.055 74.302 L 262.055 59.855 Z " fill-rule="evenodd" fill="rgb(0,160,143)"/><path d=" M 266 35.423 L 266 13.368 L 250.813 13.368 C 245.136 13.368 240.526 17.978 240.526 23.655 L 240.526 24.396 C 240.526 30.482 245.467 35.423 251.553 35.423 L 266 35.423 Z " fill-rule="evenodd" fill="rgb(0,94,84)"/><path d=" M 265.526 13.368 L 265.526 35.423 L 280.713 35.423 C 286.39 35.423 291 30.814 291 25.136 L 291 24.396 C 291 18.31 286.059 13.368 279.973 13.368 L 265.526 13.368 Z " fill-rule="evenodd" fill="rgb(0,94,84)"/><path d=" M 240 38.842 L 262.055 38.842 L 262.055 23.655 C 262.055 17.978 257.446 13.368 251.768 13.368 L 251.027 13.368 C 244.941 13.368 240 18.31 240 24.396 L 240 38.842 Z " fill-rule="evenodd" fill="rgb(0,160,143)"/><rect x="240" y="38.322" width="22.055" height="22.055" transform="matrix(1,0,0,1,0,0)" fill="rgb(0,160,143)"/><path d=" M 291 60.116 L 268.945 60.116 L 268.945 75.303 C 268.945 80.98 273.554 85.59 279.232 85.59 L 279.973 85.59 C 286.059 85.59 291 80.649 291 74.563 L 291 60.116 Z " fill-rule="evenodd" fill="rgb(0,94,84)"/><path d=" M 268.945 38.842 L 291 38.842 L 291 23.655 C 291 17.978 286.391 13.368 280.713 13.368 L 279.973 13.368 C 273.887 13.368 268.945 18.31 268.945 24.396 L 268.945 38.842 Z " fill-rule="evenodd" fill="rgb(0,94,84)"/><path d=" M 265.052 63.535 L 265.052 85.59 L 280.239 85.59 C 285.916 85.59 290.526 80.981 290.526 75.303 L 290.526 74.563 C 290.526 68.477 285.585 63.535 279.499 63.535 L 265.052 63.535 Z " fill-rule="evenodd" fill="rgb(0,121,109)"/></g></svg>