<?xml version="1.0" encoding="UTF-8" standalone="no"?>
<!-- Generator: Gravit.io -->
<svg xmlns="http://www.w3.org/2000/svg" xmlns:xlink="http://www.w3.org/1999/xlink" style="isolation:isolate" viewBox="0 0 100 100" width="100pt" height="100pt"><defs><clipPath id="_clipPath_RHq6WExOCwWECRiSz4p6B6yJSgW2FtPr"><rect width="100" height="100"/></clipPath></defs><g clip-path="url(#_clipPath_RHq6WExOCwWECRiSz4p6B6yJSgW2FtPr)"><rect x="0" y="0" width="100" height="100" transform="matrix(1,0,0,1,0,0)" fill="rgb(18,18,18)"/><path d=" M 38.557 60.767 L 16.503 60.767 L 16.503 75.954 C 16.503 81.631 21.112 86.241 26.789 86.241 L 27.53 86.241 C 33.616 86.241 38.557 81.3 38.557 75.214 L 38.557 60.767 Z " fill-rule="evenodd" fill="rgb(0,160,143)"/><path d=" M 16.503 39.754 L 38.557 39.754 L 38.557 24.567 C 38.557 18.89 33.948 14.28 28.271 14.28 L 27.53 14.28 C 21.444 14.28 16.503 19.221 16.503 25.307 L 16.503 39.754 Z " fill-rule="evenodd" fill="rgb(0,160,143)"/><path d=" M 53.632 27.723 L 69.227 43.318 L 79.966 32.579 C 83.98 28.565 83.98 22.046 79.966 18.031 L 79.442 17.507 C 75.139 13.204 68.15 13.204 63.847 17.507 L 53.632 27.723 Z " fill-rule="evenodd" fill="rgb(0,121,109)"/><path d=" M 69.533 56.375 L 53.938 71.97 L 64.677 82.709 C 68.692 86.723 75.211 86.724 79.225 82.709 L 79.749 82.186 C 84.052 77.882 84.052 70.894 79.749 66.591 L 69.533 56.375 Z " fill-rule="evenodd" fill="rgb(0,94,84)"/><rect x="43.432" y="45.869" width="22.055" height="22.055" transform="matrix(-0.707,0.707,-0.707,-0.707,133.199,58.619)" fill="rgb(0,94,84)"/><rect x="39.677" y="30.341" width="22.055" height="31.807" transform="matrix(0.707,0.707,-0.707,0.707,47.551,-22.309)" fill="rgb(0,121,109)"/><rect x="16.503" y="39.233" width="22.055" height="22.055" transform="matrix(1,0,0,1,0,0)" fill="rgb(0,160,143)"/></g></svg>